<?xml version="1.0" encoding="UTF-8" standalone="no"?>
<svg width="205px" height="73px" viewBox="0 0 205 73" version="1.1" xmlns="http://www.w3.org/2000/svg" xmlns:xlink="http://www.w3.org/1999/xlink" xmlns:sketch="http://www.bohemiancoding.com/sketch/ns">
    <!-- Generator: Sketch 3.4.4 (17249) - http://www.bohemiancoding.com/sketch -->
    <title>xjet-logo</title>
    <desc>Created with Sketch.</desc>
    <defs>
        <path id="path-1" d="M0,0.0855591398 L204.951695,0.0855591398 L204.951695,73 L0,73 L0,0.0855591398 Z"></path>
    </defs>
    <g id="Hybrid" stroke="none" stroke-width="1" fill="none" fill-rule="evenodd" sketch:type="MSPage">
        <g id="Hybrid-Main" sketch:type="MSArtboardGroup" transform="translate(-30.000000, -24.000000)">
            <g id="base" sketch:type="MSLayerGroup" transform="translate(4.000000, 17.000000)">
                <g id="Header" transform="translate(26.000000, 7.000000)">
                    <g id="xjet-logo">
                        <g id="Group-3">
                            <mask id="mask-2" sketch:name="Clip 2" fill="white">
                                <use xlink:href="#path-1"></use>
                            </mask>
                            <g id="Clip-2"></g>
                            <path d="M31.7765709,34.805929 L42.8944828,0.680391398 C45.4758333,0.283208602 47.9578257,0.0854021505 50.3404598,0.0854021505 C51.5963793,0.0854021505 52.8711494,0.119154839 54.1616284,0.183912903 C55.4525,0.251025806 56.7586877,0.382896774 58.0821552,0.580703226 L45.4758333,34.5084344 L60.9611877,71.809472 C59.4386111,72.0072785 58.0982567,72.1564183 56.94091,72.2564989 C55.7819923,72.3554022 54.6081513,72.4040688 53.4174234,72.4040688 C52.2911015,72.4040688 51.1494636,72.3554022 49.9929023,72.2564989 C48.833592,72.1564183 47.4272605,71.9735258 45.773908,71.7097839 L31.7765709,34.805929 Z M15.6840709,34.5084344 L2.87824713,0.580703226 C4.20171456,0.382896774 5.50947318,0.251025806 6.79995211,0.183912903 C8.09043103,0.119154839 9.36363027,0.0854021505 10.6219061,0.0854021505 C13.0041475,0.0854021505 15.4857471,0.283208602 18.066705,0.680391398 L29.3825479,34.805929 L15.1880651,71.7097839 C13.5331418,71.9735258 12.1264176,72.1564183 10.9690709,72.2564989 C9.81015326,72.3554022 8.66890805,72.4040688 7.54415709,72.4040688 C6.3530364,72.4040688 5.17762452,72.3554022 4.0206705,72.2564989 C2.86175287,72.1564183 1.52139847,72.0072785 0,71.809472 L15.6840709,34.5084344 Z" id="Fill-1" fill="#ED1C24" sketch:type="MSShapeGroup" mask="url(#mask-2)"></path>
                        </g>
                        <path d="M84.1719397,12.7831634 L72.3593056,12.7831634 C72.1605891,11.8577118 72.0121408,10.848271 71.9123898,9.7571957 C71.8134243,8.66572796 71.7635489,7.59231398 71.7635489,6.53302903 C71.7635489,4.41681398 71.9622653,2.40107204 72.3593056,0.481878495 L98.6652826,0.481878495 L98.6652826,52.8617333 C98.6652826,56.4999591 98.084842,59.5918624 96.9274952,62.1370505 C95.7689703,64.6838086 94.1812021,66.7678409 92.1626197,68.3860075 C90.1436446,70.007314 87.7614033,71.1815935 85.0162883,71.9092387 C82.268817,72.6357065 79.273932,72.9999215 76.0324186,72.9999215 C74.9060967,72.9999215 73.5009435,72.9006258 71.8134243,72.7024269 C70.1255125,72.504228 68.5204646,72.2067333 66.9986734,71.8095505 C66.9319109,71.3480022 66.8828209,70.8840989 66.8498324,70.4213731 C66.8156657,69.9590398 66.7999569,69.4629538 66.7999569,68.9327226 C66.7999569,65.8918409 67.3611542,62.8482118 68.4874761,59.8057602 C69.2155795,59.9388086 70.0092672,60.1036473 70.8701102,60.3030237 C71.7297749,60.5000452 72.6232136,60.6001258 73.5500335,60.6001258 C74.6751772,60.6001258 75.8659052,60.5341903 77.124181,60.4007495 C78.3804933,60.2688785 79.5221312,59.8720882 80.5487021,59.2111634 C81.5740948,58.5510237 82.4349377,57.5741581 83.1300527,56.2844914 C83.8243822,54.9944323 84.1719397,53.159228 84.1719397,50.778486 L84.1719397,12.7831634 Z" id="Fill-4" fill="#FEFEFE" sketch:type="MSShapeGroup"></path>
                        <path d="M106.174841,0.481996237 L146.675693,0.481996237 C147.073126,2.46555538 147.27145,4.48404462 147.27145,6.53314677 C147.27145,8.71568978 147.073126,10.7985446 146.675693,12.7832812 L120.667398,12.7832812 L120.667398,28.2584962 L141.314669,28.2584962 C141.712494,30.3762812 141.910818,32.4249909 141.910818,34.4101199 C141.910818,36.5263349 141.712494,38.6095823 141.314669,40.6590769 L120.667398,40.6590769 L120.667398,59.5083833 L147.370023,59.5083833 C147.767849,61.4919425 147.966565,63.5100392 147.966565,65.5591414 C147.966565,67.7416844 147.767849,69.8249317 147.370023,71.8096683 L106.174841,71.8096683 L106.174841,0.481996237 Z" id="Fill-6" fill="#FEFEFE" sketch:type="MSShapeGroup"></path>
                        <path d="M171.995393,12.7831634 L154.226762,12.7831634 C153.830508,10.7984269 153.631006,8.71557204 153.631006,6.53302903 C153.631006,4.48392688 153.830508,2.46583011 154.226762,0.481878495 L204.356331,0.481878495 C204.753764,2.46583011 204.951695,4.48392688 204.951695,6.53302903 C204.951695,8.71557204 204.753764,10.7984269 204.356331,12.7831634 L186.588487,12.7831634 L186.588487,71.8095505 C185.396973,71.9414215 184.205067,72.0572011 183.014339,72.1564968 C181.823611,72.2565774 180.664693,72.306029 179.53955,72.306029 C178.414406,72.306029 177.207577,72.2710989 175.916312,72.2067333 C174.625833,72.139228 173.318467,72.007357 171.995393,71.8095505 L171.995393,12.7831634 Z" id="Fill-8" fill="#FEFEFE" sketch:type="MSShapeGroup"></path>
                    </g>
                </g>
            </g>
        </g>
    </g>
</svg>
